<svg width="50" height="50" viewBox="0 0 50 50" fill="none" xmlns="http://www.w3.org/2000/svg">
<path d="M11.4593 41.6677C13.1852 41.6677 14.5843 43.0667 14.5843 44.7927C14.5843 46.5185 13.1852 47.9177 11.4593 47.9177C9.73342 47.9177 8.33429 46.5185 8.33429 44.7927C8.33429 43.0667 9.73342 41.6677 11.4593 41.6677ZM38.5427 41.6677C40.2686 41.6677 41.6677 43.0667 41.6677 44.7927C41.6677 46.5185 40.2686 47.9177 38.5427 47.9177C36.8167 47.9177 35.4177 46.5185 35.4177 44.7927C35.4177 43.0667 36.8167 41.6677 38.5427 41.6677ZM3.05194 5.13525C3.86553 4.32167 5.18462 4.32168 5.99818 5.13529L10.1641 9.3014C11.6595 10.7969 12.4996 12.8253 12.4996 14.9402V35.4163L39.5844 35.4176C40.735 35.4177 41.6677 36.3504 41.6677 37.501C41.6677 38.6516 40.735 39.5844 39.5843 39.5844H10.4176C9.26704 39.5844 8.33429 38.6515 8.33429 37.501L8.33296 13.3621L3.05199 8.0815C2.23838 7.26794 2.23835 5.94884 3.05194 5.13525Z" fill="#727CF5"/>
<g clip-path="url(#clip0_73_32)">
<path d="M36.2586 27.0085L29.3427 31.2863L21.3217 18.3191C20.4357 16.8867 20.8786 15.0074 22.311 14.1214L26.6334 11.4478C27.1108 11.1524 27.7373 11.3001 28.0326 11.7775L36.5883 25.6092C36.8836 26.0867 36.736 26.7131 36.2586 27.0085ZM27.6137 32.3558L20.6979 36.6336C20.2204 36.929 19.594 36.7813 19.2986 36.3039L10.7429 22.4721C10.4476 21.9947 10.5952 21.3683 11.0727 21.0729L15.3951 18.3993C16.8274 17.5133 18.7068 17.9562 19.5927 19.3885L27.6137 32.3558Z" fill="#727CF5"/>
</g>
<defs>
<clipPath id="clip0_73_32">
<rect width="24.396" height="24.396" fill="white" transform="translate(6.875 20.0836) rotate(-31.7391)"/>
</clipPath>
</defs>
</svg>
